<?xml version="1.0" ?><svg height="31.999985" id="svg5" version="1.1" viewBox="0 0 32 31.999985" width="32" xmlns="http://www.w3.org/2000/svg" xmlns:svg="http://www.w3.org/2000/svg"><defs id="defs2"/><g id="layer1" transform="translate(-348,-196)"><path d="m 373.42578,208.14453 -1.20703,4.86914 H 357 c -0.01,0.002 -0.0196,0.004 -0.0293,0.006 l -1.89648,-9.00586 H 367 c 0.55228,0 1,-0.44772 1,-1 0,-0.55228 -0.44772,-1 -1,-1 h -12.3457 l -0.67578,-3.20703 c -0.0978,-0.46236 -0.50593,-0.79315 -0.97852,-0.79311 h -2 c -0.55228,0 -1,0.44772 -1,1 0,0.55228 0.44772,1 1,1 h 1.18945 l 3.83203,18.20508 c 0.0971,0.46308 0.50537,0.79478 0.97852,0.79492 h 17 c 0.55228,0 1,-0.44772 1,-1 0,-0.55228 -0.44772,-1 -1,-1 h -16.18945 l -0.42188,-2 H 373 c 0.45973,-4e-5 0.86022,-0.3135 0.9707,-0.75976 l 1.39649,-5.62891 z" id="path16702" style="color:#000000;fill:#20274F;fill-opacity:1;fill-rule:evenodd;stroke-linecap:round;stroke-linejoin:round;stroke-miterlimit:4.1;-inkscape-stroke:none"/><path d="m 361,220.01367 c -1.64501,0 -3,1.35499 -3,3 0,1.64501 1.35499,3 3,3 1.64501,0 3,-1.35499 3,-3 0,-1.64501 -1.35499,-3 -3,-3 z m 0,2 c 0.56413,0 1,0.43587 1,1 0,0.56413 -0.43587,1 -1,1 -0.56413,0 -1,-0.43587 -1,-1 0,-0.56413 0.43587,-1 1,-1 z" id="circle39515" style="color:#000000;fill:#20274F;fill-opacity:1;fill-rule:evenodd;stroke-linecap:round;stroke-linejoin:round;stroke-miterlimit:4.1;-inkscape-stroke:none"/><path d="m 371,220.01367 c -1.64501,0 -3,1.35499 -3,3 0,1.64501 1.35499,3 3,3 1.64501,0 3,-1.35499 3,-3 0,-1.64501 -1.35499,-3 -3,-3 z m 0,2 c 0.56413,0 1,0.43587 1,1 0,0.56413 -0.43587,1 -1,1 -0.56413,0 -1,-0.43587 -1,-1 0,-0.56413 0.43587,-1 1,-1 z" id="circle39517" style="color:#000000;fill:#20274F;fill-opacity:1;fill-rule:evenodd;stroke-linecap:round;stroke-linejoin:round;stroke-miterlimit:4.1;-inkscape-stroke:none"/><path d="m 372,198.01367 c -3.30186,0 -6,2.69814 -6,6 0,3.30186 2.69814,6 6,6 3.30186,0 6,-2.69814 6,-6 0,-3.30186 -2.69814,-6 -6,-6 z m 0,2 c 2.22098,0 4,1.77902 4,4 0,2.22098 -1.77902,4 -4,4 -2.22098,0 -4,-1.77902 -4,-4 0,-2.22098 1.77902,-4 4,-4 z" id="circle39521" style="color:#000000;fill:#00c89f;fill-opacity:1;fill-rule:evenodd;stroke-linecap:round;stroke-linejoin:round;stroke-miterlimit:4.1;-inkscape-stroke:none"/><path d="m 373.36719,202.23828 -2.0293,1.6543 -0.65625,-0.61133 a 1,1 0 0 0 -1.41211,0.0488 1,1 0 0 0 0.0488,1.41406 l 1.29297,1.20703 a 1.0001,1.0001 0 0 0 1.3125,0.043 l 2.70898,-2.20703 a 1,1 0 0 0 0.14258,-1.40625 1,1 0 0 0 -1.4082,-0.14258 z" id="path39523" style="color:#000000;fill:#00c89f;fill-opacity:1;fill-rule:evenodd;stroke-linecap:round;stroke-linejoin:round;stroke-miterlimit:4.1;-inkscape-stroke:none"/></g></svg>